<svg viewBox="0 0 64 64" xmlns="http://www.w3.org/2000/svg"><g fill="#a1a1a1" fill-rule="nonzero" class="fill-000000"><path d="M22 8a8 8 0 0 1 8 8v6a8 8 0 0 1-8 8h-6a8 8 0 0 1-8-8v-6a8 8 0 0 1 8-8h6Zm0 5h-6a3 3 0 0 0-2.995 2.824L13 16v6a3 3 0 0 0 2.824 2.995L16 25h6a3 3 0 0 0 2.995-2.824L25 22v-6a3 3 0 0 0-2.824-2.995L22 13ZM48 8a8 8 0 0 1 8 8v6a8 8 0 0 1-8 8h-6a8 8 0 0 1-8-8v-6a8 8 0 0 1 8-8h6Zm0 5h-6a3 3 0 0 0-2.995 2.824L39 16v6a3 3 0 0 0 2.824 2.995L42 25h6a3 3 0 0 0 2.995-2.824L51 22v-6a3 3 0 0 0-2.824-2.995L48 13ZM22 34a8 8 0 0 1 8 8v6a8 8 0 0 1-8 8h-6a8 8 0 0 1-8-8v-6a8 8 0 0 1 8-8h6Zm0 5h-6a3 3 0 0 0-2.995 2.824L13 42v6a3 3 0 0 0 2.824 2.995L16 51h6a3 3 0 0 0 2.995-2.824L25 48v-6a3 3 0 0 0-2.824-2.995L22 39ZM48 34a8 8 0 0 1 8 8v6a8 8 0 0 1-8 8h-6a8 8 0 0 1-8-8v-6a8 8 0 0 1 8-8h6Zm0 5h-6a3 3 0 0 0-2.995 2.824L39 42v6a3 3 0 0 0 2.824 2.995L42 51h6a3 3 0 0 0 2.995-2.824L51 48v-6a3 3 0 0 0-2.824-2.995L48 39Z"></path></g></svg>